<svg  width="27.992" height="28" viewBox="0 0 27.992 28">
  <g id="Page-1" transform="translate(0 0.003)">
    <g id="Dribbble-Light-Preview" transform="translate(0 -0.003)">
      <g id="icons" transform="translate(0)">
        <path id="call-_192_" data-name="call-[#192]" d="M74.489,7185.263c-.864,2.612-4.249,3.919-6.668,3.714a21.161,21.161,0,0,1-9.625-3.994,31.735,31.735,0,0,1-9.956-11.868c-1.547-3.284-1.894-7.334.407-10.338A3.993,3.993,0,0,1,51.8,7161c1.918-.093,2.187,1.008,2.846,2.725.491,1.27,1.146,2.575,1.512,3.9.685,2.482-1.709,2.576-2.012,4.591-.188,1.288,1.357,2.986,2.055,3.9a18.8,18.8,0,0,0,4.867,4.479c1.062.671,2.777,1.884,3.993,1.212,1.874-1.025,1.7-4.179,4.316-3.116,1.357.56,2.67,1.362,3.966,2.054,2,1.082,1.909,2.183,1.146,4.516-.571,1.717.571-1.736,0,0" transform="translate(-47 -7160.998)" fill="#222f33" fill-rule="evenodd"/>
      </g>
    </g>
  </g>
</svg>
