<svg xmlns="http://www.w3.org/2000/svg" width="92.719" height="110.388" viewBox="0 0 92.719 110.388">
  <g id="Group_51" data-name="Group 51" transform="translate(-378.101 -574.301)">
    <path id="Path_9" data-name="Path 9" d="M11.5,0A11.5,11.5,0,1,1,0,11.5,11.5,11.5,0,0,1,11.5,0Z" transform="translate(466.908 607.494) rotate(135)" fill="#25363b"/>
    <path id="Path_10" data-name="Path 10" d="M18,0A18,18,0,1,1,0,18,18,18,0,0,1,18,0Z" transform="translate(429.012 599.757) rotate(135)" fill="#25363b"/>
    <path id="Path_11" data-name="Path 11" d="M13,0A13,13,0,1,1,0,13,13,13,0,0,1,13,0Z" transform="translate(470.82 666.305) rotate(135)" fill="#25363b"/>
  </g>
</svg>
