<svg  width="30.451" height="23.195" viewBox="0 0 30.451 23.195">
  <g id="mail" transform="translate(0 -61)">
    <g id="Group_28" data-name="Group 28" transform="translate(1.53 61)">
      <g id="Group_27" data-name="Group 27">
        <path id="Path_3" data-name="Path 3" d="M51.965,61h-25.1a2.645,2.645,0,0,0-1.147.268L39.357,74.9l3.056-2.937h0l10.7-10.7A2.645,2.645,0,0,0,51.965,61Z" transform="translate(-25.721 -61)" fill="#222f33"/>
      </g>
    </g>
    <g id="Group_30" data-name="Group 30" transform="translate(20.115 62.53)">
      <g id="Group_29" data-name="Group 29">
        <path id="Path_4" data-name="Path 4" d="M348.281,86.728,338.213,96.8l10.068,10.068a2.645,2.645,0,0,0,.268-1.147V87.874A2.645,2.645,0,0,0,348.281,86.728Z" transform="translate(-338.213 -86.728)" fill="#222f33"/>
      </g>
    </g>
    <g id="Group_32" data-name="Group 32" transform="translate(0 62.53)">
      <g id="Group_31" data-name="Group 31">
        <path id="Path_5" data-name="Path 5" d="M.268,86.721A2.645,2.645,0,0,0,0,87.868V105.71a2.646,2.646,0,0,0,.268,1.146L10.336,96.789Z" transform="translate(0 -86.721)" fill="#222f33"/>
      </g>
    </g>
    <g id="Group_34" data-name="Group 34" transform="translate(1.529 73.859)">
      <g id="Group_33" data-name="Group 33">
        <path id="Path_6" data-name="Path 6" d="M43.038,277.211l-3.057,2.938a.892.892,0,0,1-1.261,0l-2.938-2.938L25.714,287.278a2.645,2.645,0,0,0,1.147.268h25.1a2.646,2.646,0,0,0,1.147-.268Z" transform="translate(-25.714 -277.211)" fill="#222f33"/>
      </g>
    </g>
  </g>
</svg>
